<mxfile host="app.diagrams.net" agent="Mozilla/5.0 (Windows NT 10.0; Win64; x64) AppleWebKit/537.36 (KHTML, like Gecko) Chrome/129.0.0.0 Safari/537.36" version="24.7.16">
  <diagram name="Página-1" id="Pc5DhIQtplevxK-1UUDy">
    <mxGraphModel dx="2021" dy="750" grid="1" gridSize="10" guides="1" tooltips="1" connect="1" arrows="1" fold="1" page="1" pageScale="1" pageWidth="827" pageHeight="1169" math="0" shadow="0">
      <root>
        <mxCell id="0" />
        <mxCell id="1" parent="0" />
        <mxCell id="p_HQFwrYFjM6hPYEm75_-1" value="EQUIPA" style="rounded=0;whiteSpace=wrap;html=1;" parent="1" vertex="1">
          <mxGeometry x="200" y="240" width="80" height="80" as="geometry" />
        </mxCell>
        <mxCell id="p_HQFwrYFjM6hPYEm75_-2" value="JOGADOR" style="rounded=0;whiteSpace=wrap;html=1;" parent="1" vertex="1">
          <mxGeometry x="520" y="240" width="80" height="80" as="geometry" />
        </mxCell>
        <mxCell id="p_HQFwrYFjM6hPYEm75_-3" value="JOGO" style="rounded=0;whiteSpace=wrap;html=1;" parent="1" vertex="1">
          <mxGeometry x="360" y="480" width="80" height="80" as="geometry" />
        </mxCell>
        <mxCell id="p_HQFwrYFjM6hPYEm75_-9" value="Data&lt;span style=&quot;color: rgba(0, 0, 0, 0); font-family: monospace; font-size: 0px; text-align: start; text-wrap: nowrap;&quot;&gt;%3CmxGraphModel%3E%3Croot%3E%3CmxCell%20id%3D%220%22%2F%3E%3CmxCell%20id%3D%221%22%20parent%3D%220%22%2F%3E%3CmxCell%20id%3D%222%22%20value%3D%22%22%20style%3D%22rhombus%3BwhiteSpace%3Dwrap%3Bhtml%3D1%3B%22%20vertex%3D%221%22%20parent%3D%221%22%3E%3CmxGeometry%20x%3D%22480%22%20y%3D%22280%22%20width%3D%2280%22%20height%3D%2280%22%20as%3D%22geometry%22%2F%3E%3C%2FmxCell%3E%3C%2Froot%3E%3C%2FmxGraphModel%3E&lt;/span&gt;" style="ellipse;whiteSpace=wrap;html=1;align=center;" parent="1" vertex="1">
          <mxGeometry x="200" y="640" width="80" height="40" as="geometry" />
        </mxCell>
        <mxCell id="p_HQFwrYFjM6hPYEm75_-16" value="Resultado?" style="ellipse;whiteSpace=wrap;html=1;align=center;" parent="1" vertex="1">
          <mxGeometry x="600" y="600" width="80" height="40" as="geometry" />
        </mxCell>
        <mxCell id="p_HQFwrYFjM6hPYEm75_-25" value="" style="endArrow=none;html=1;rounded=0;" parent="1" source="p_HQFwrYFjM6hPYEm75_-3" target="p_HQFwrYFjM6hPYEm75_-9" edge="1">
          <mxGeometry relative="1" as="geometry">
            <mxPoint x="310" y="670" as="sourcePoint" />
            <mxPoint x="470" y="670" as="targetPoint" />
          </mxGeometry>
        </mxCell>
        <mxCell id="p_HQFwrYFjM6hPYEm75_-29" value="" style="endArrow=none;html=1;rounded=0;" parent="1" source="p_HQFwrYFjM6hPYEm75_-3" target="p_HQFwrYFjM6hPYEm75_-16" edge="1">
          <mxGeometry relative="1" as="geometry">
            <mxPoint x="432" y="600" as="sourcePoint" />
            <mxPoint x="576" y="703" as="targetPoint" />
          </mxGeometry>
        </mxCell>
        <mxCell id="p_HQFwrYFjM6hPYEm75_-34" value="" style="endArrow=none;html=1;rounded=0;" parent="1" source="p_HQFwrYFjM6hPYEm75_-3" target="p_HQFwrYFjM6hPYEm75_-50" edge="1">
          <mxGeometry relative="1" as="geometry">
            <mxPoint x="330" y="583" as="sourcePoint" />
            <mxPoint x="140" y="640" as="targetPoint" />
          </mxGeometry>
        </mxCell>
        <mxCell id="p_HQFwrYFjM6hPYEm75_-41" value="DatadeFundação" style="ellipse;whiteSpace=wrap;html=1;align=center;" parent="1" vertex="1">
          <mxGeometry x="-90" y="270" width="100" height="40" as="geometry" />
        </mxCell>
        <mxCell id="p_HQFwrYFjM6hPYEm75_-48" value="Morada" style="ellipse;whiteSpace=wrap;html=1;align=center;" parent="1" vertex="1">
          <mxGeometry x="30" y="120" width="100" height="40" as="geometry" />
        </mxCell>
        <mxCell id="p_HQFwrYFjM6hPYEm75_-50" value="Local" style="ellipse;whiteSpace=wrap;html=1;align=center;" parent="1" vertex="1">
          <mxGeometry x="120" y="600" width="80" height="40" as="geometry" />
        </mxCell>
        <mxCell id="p_HQFwrYFjM6hPYEm75_-51" value="Visitante" style="ellipse;whiteSpace=wrap;html=1;align=center;" parent="1" vertex="1">
          <mxGeometry x="280" y="680" width="80" height="40" as="geometry" />
        </mxCell>
        <mxCell id="p_HQFwrYFjM6hPYEm75_-52" value="" style="endArrow=none;html=1;rounded=0;" parent="1" source="p_HQFwrYFjM6hPYEm75_-3" target="p_HQFwrYFjM6hPYEm75_-51" edge="1">
          <mxGeometry relative="1" as="geometry">
            <mxPoint x="200" y="670" as="sourcePoint" />
            <mxPoint x="360" y="670" as="targetPoint" />
          </mxGeometry>
        </mxCell>
        <mxCell id="p_HQFwrYFjM6hPYEm75_-53" value="Visitado" style="ellipse;whiteSpace=wrap;html=1;align=center;" parent="1" vertex="1">
          <mxGeometry x="520" y="640" width="80" height="40" as="geometry" />
        </mxCell>
        <mxCell id="p_HQFwrYFjM6hPYEm75_-54" value="" style="endArrow=none;html=1;rounded=0;" parent="1" source="p_HQFwrYFjM6hPYEm75_-3" target="p_HQFwrYFjM6hPYEm75_-53" edge="1">
          <mxGeometry relative="1" as="geometry">
            <mxPoint x="200" y="670" as="sourcePoint" />
            <mxPoint x="360" y="670" as="targetPoint" />
          </mxGeometry>
        </mxCell>
        <mxCell id="p_HQFwrYFjM6hPYEm75_-56" value="NumJogo" style="ellipse;whiteSpace=wrap;html=1;align=center;fontStyle=4;" parent="1" vertex="1">
          <mxGeometry x="440" y="680" width="80" height="40" as="geometry" />
        </mxCell>
        <mxCell id="p_HQFwrYFjM6hPYEm75_-57" value="" style="endArrow=none;html=1;rounded=0;" parent="1" source="p_HQFwrYFjM6hPYEm75_-56" target="p_HQFwrYFjM6hPYEm75_-3" edge="1">
          <mxGeometry relative="1" as="geometry">
            <mxPoint x="200" y="670" as="sourcePoint" />
            <mxPoint x="360" y="670" as="targetPoint" />
          </mxGeometry>
        </mxCell>
        <mxCell id="p_HQFwrYFjM6hPYEm75_-58" value="Nome" style="ellipse;whiteSpace=wrap;html=1;align=center;" parent="1" vertex="1">
          <mxGeometry x="220" y="100" width="100" height="40" as="geometry" />
        </mxCell>
        <mxCell id="p_HQFwrYFjM6hPYEm75_-59" value="NumInterno" style="ellipse;whiteSpace=wrap;html=1;align=center;fontStyle=4;" parent="1" vertex="1">
          <mxGeometry x="-30" y="180" width="100" height="50" as="geometry" />
        </mxCell>
        <mxCell id="p_HQFwrYFjM6hPYEm75_-61" value="" style="endArrow=none;html=1;rounded=0;" parent="1" source="p_HQFwrYFjM6hPYEm75_-1" target="p_HQFwrYFjM6hPYEm75_-48" edge="1">
          <mxGeometry relative="1" as="geometry">
            <mxPoint x="220" y="260" as="sourcePoint" />
            <mxPoint x="380" y="260" as="targetPoint" />
          </mxGeometry>
        </mxCell>
        <mxCell id="p_HQFwrYFjM6hPYEm75_-62" value="" style="endArrow=none;html=1;rounded=0;" parent="1" source="p_HQFwrYFjM6hPYEm75_-1" target="p_HQFwrYFjM6hPYEm75_-58" edge="1">
          <mxGeometry relative="1" as="geometry">
            <mxPoint x="168" y="250" as="sourcePoint" />
            <mxPoint x="138" y="320" as="targetPoint" />
          </mxGeometry>
        </mxCell>
        <mxCell id="p_HQFwrYFjM6hPYEm75_-63" value="" style="endArrow=none;html=1;rounded=0;" parent="1" source="p_HQFwrYFjM6hPYEm75_-48" target="sYrx5zOrQZK9a5-0PGnQ-9" edge="1">
          <mxGeometry relative="1" as="geometry">
            <mxPoint x="180" y="170" as="sourcePoint" />
            <mxPoint x="-110" y="200" as="targetPoint" />
          </mxGeometry>
        </mxCell>
        <mxCell id="p_HQFwrYFjM6hPYEm75_-64" value="" style="endArrow=none;html=1;rounded=0;" parent="1" source="p_HQFwrYFjM6hPYEm75_-48" target="sYrx5zOrQZK9a5-0PGnQ-5" edge="1">
          <mxGeometry relative="1" as="geometry">
            <mxPoint x="188" y="270" as="sourcePoint" />
            <mxPoint x="-16.90328924211053" y="229.85959746873198" as="targetPoint" />
          </mxGeometry>
        </mxCell>
        <mxCell id="p_HQFwrYFjM6hPYEm75_-65" value="" style="endArrow=none;html=1;rounded=0;" parent="1" source="p_HQFwrYFjM6hPYEm75_-48" target="sYrx5zOrQZK9a5-0PGnQ-7" edge="1">
          <mxGeometry relative="1" as="geometry">
            <mxPoint x="198" y="280" as="sourcePoint" />
            <mxPoint x="-12.264990188738466" y="273.35899411324294" as="targetPoint" />
          </mxGeometry>
        </mxCell>
        <mxCell id="p_HQFwrYFjM6hPYEm75_-66" value="" style="endArrow=none;html=1;rounded=0;" parent="1" source="p_HQFwrYFjM6hPYEm75_-48" target="sYrx5zOrQZK9a5-0PGnQ-6" edge="1">
          <mxGeometry relative="1" as="geometry">
            <mxPoint x="208" y="290" as="sourcePoint" />
            <mxPoint x="14.073678397556478" y="330.80862036696817" as="targetPoint" />
          </mxGeometry>
        </mxCell>
        <mxCell id="p_HQFwrYFjM6hPYEm75_-68" value="" style="endArrow=none;html=1;rounded=0;" parent="1" source="p_HQFwrYFjM6hPYEm75_-1" target="p_HQFwrYFjM6hPYEm75_-41" edge="1">
          <mxGeometry relative="1" as="geometry">
            <mxPoint x="130" y="215" as="sourcePoint" />
            <mxPoint x="-8" y="181" as="targetPoint" />
          </mxGeometry>
        </mxCell>
        <mxCell id="p_HQFwrYFjM6hPYEm75_-69" value="" style="endArrow=none;html=1;rounded=0;" parent="1" source="p_HQFwrYFjM6hPYEm75_-1" target="p_HQFwrYFjM6hPYEm75_-59" edge="1">
          <mxGeometry relative="1" as="geometry">
            <mxPoint x="140" y="225" as="sourcePoint" />
            <mxPoint x="2" y="191" as="targetPoint" />
          </mxGeometry>
        </mxCell>
        <mxCell id="p_HQFwrYFjM6hPYEm75_-73" value="NumJogador" style="ellipse;whiteSpace=wrap;html=1;align=center;fontStyle=4;" parent="1" vertex="1">
          <mxGeometry x="596" y="30" width="100" height="40" as="geometry" />
        </mxCell>
        <mxCell id="p_HQFwrYFjM6hPYEm75_-74" value="Nome" style="ellipse;whiteSpace=wrap;html=1;align=center;" parent="1" vertex="1">
          <mxGeometry x="736" y="50" width="100" height="40" as="geometry" />
        </mxCell>
        <mxCell id="p_HQFwrYFjM6hPYEm75_-75" value="DataDeNascimento" style="ellipse;whiteSpace=wrap;html=1;align=center;" parent="1" vertex="1">
          <mxGeometry x="360" y="20" width="160" height="40" as="geometry" />
        </mxCell>
        <mxCell id="p_HQFwrYFjM6hPYEm75_-76" value="Genero" style="ellipse;whiteSpace=wrap;html=1;align=center;" parent="1" vertex="1">
          <mxGeometry x="816" y="110" width="100" height="40" as="geometry" />
        </mxCell>
        <mxCell id="p_HQFwrYFjM6hPYEm75_-77" value="Posição" style="ellipse;whiteSpace=wrap;html=1;align=center;" parent="1" vertex="1">
          <mxGeometry x="866" y="200" width="100" height="40" as="geometry" />
        </mxCell>
        <mxCell id="p_HQFwrYFjM6hPYEm75_-78" value="" style="endArrow=none;html=1;rounded=0;" parent="1" source="p_HQFwrYFjM6hPYEm75_-75" target="p_HQFwrYFjM6hPYEm75_-2" edge="1">
          <mxGeometry relative="1" as="geometry">
            <mxPoint x="286" y="220" as="sourcePoint" />
            <mxPoint x="446" y="220" as="targetPoint" />
          </mxGeometry>
        </mxCell>
        <mxCell id="p_HQFwrYFjM6hPYEm75_-79" value="" style="endArrow=none;html=1;rounded=0;" parent="1" source="p_HQFwrYFjM6hPYEm75_-76" target="p_HQFwrYFjM6hPYEm75_-2" edge="1">
          <mxGeometry relative="1" as="geometry">
            <mxPoint x="572" y="126" as="sourcePoint" />
            <mxPoint x="666" y="159" as="targetPoint" />
          </mxGeometry>
        </mxCell>
        <mxCell id="p_HQFwrYFjM6hPYEm75_-80" value="" style="endArrow=none;html=1;rounded=0;" parent="1" source="p_HQFwrYFjM6hPYEm75_-74" target="p_HQFwrYFjM6hPYEm75_-2" edge="1">
          <mxGeometry relative="1" as="geometry">
            <mxPoint x="582" y="136" as="sourcePoint" />
            <mxPoint x="686" y="169" as="targetPoint" />
          </mxGeometry>
        </mxCell>
        <mxCell id="p_HQFwrYFjM6hPYEm75_-81" value="" style="endArrow=none;html=1;rounded=0;" parent="1" source="p_HQFwrYFjM6hPYEm75_-73" target="p_HQFwrYFjM6hPYEm75_-2" edge="1">
          <mxGeometry relative="1" as="geometry">
            <mxPoint x="592" y="146" as="sourcePoint" />
            <mxPoint x="686" y="179" as="targetPoint" />
          </mxGeometry>
        </mxCell>
        <mxCell id="p_HQFwrYFjM6hPYEm75_-82" value="" style="endArrow=none;html=1;rounded=0;" parent="1" source="p_HQFwrYFjM6hPYEm75_-77" target="p_HQFwrYFjM6hPYEm75_-2" edge="1">
          <mxGeometry relative="1" as="geometry">
            <mxPoint x="834" y="151" as="sourcePoint" />
            <mxPoint x="786" y="164" as="targetPoint" />
          </mxGeometry>
        </mxCell>
        <mxCell id="sYrx5zOrQZK9a5-0PGnQ-1" value="Idade" style="ellipse;whiteSpace=wrap;html=1;align=center;dashed=1;" vertex="1" parent="1">
          <mxGeometry x="736" y="260" width="100" height="40" as="geometry" />
        </mxCell>
        <mxCell id="sYrx5zOrQZK9a5-0PGnQ-2" value="" style="endArrow=none;html=1;rounded=0;dashed=1;dashPattern=1 2;" edge="1" parent="1" source="p_HQFwrYFjM6hPYEm75_-2" target="sYrx5zOrQZK9a5-0PGnQ-1">
          <mxGeometry relative="1" as="geometry">
            <mxPoint x="756" y="210" as="sourcePoint" />
            <mxPoint x="506" y="280" as="targetPoint" />
          </mxGeometry>
        </mxCell>
        <mxCell id="sYrx5zOrQZK9a5-0PGnQ-5" value="Rua" style="ellipse;whiteSpace=wrap;html=1;align=center;" vertex="1" parent="1">
          <mxGeometry x="-190" y="90" width="100" height="40" as="geometry" />
        </mxCell>
        <mxCell id="sYrx5zOrQZK9a5-0PGnQ-6" value="NumPorta" style="ellipse;whiteSpace=wrap;html=1;align=center;" vertex="1" parent="1">
          <mxGeometry x="20" y="10" width="100" height="40" as="geometry" />
        </mxCell>
        <mxCell id="sYrx5zOrQZK9a5-0PGnQ-7" value="CodPostal" style="ellipse;whiteSpace=wrap;html=1;align=center;" vertex="1" parent="1">
          <mxGeometry x="-120" y="20" width="100" height="40" as="geometry" />
        </mxCell>
        <mxCell id="sYrx5zOrQZK9a5-0PGnQ-8" value="Localidade&lt;span style=&quot;color: rgba(0, 0, 0, 0); font-family: monospace; font-size: 0px; text-align: start; text-wrap: nowrap;&quot;&gt;%3CmxGraphModel%3E%3Croot%3E%3CmxCell%20id%3D%220%22%2F%3E%3CmxCell%20id%3D%221%22%20parent%3D%220%22%2F%3E%3CmxCell%20id%3D%222%22%20value%3D%22Rua%22%20style%3D%22ellipse%3BwhiteSpace%3Dwrap%3Bhtml%3D1%3Balign%3Dcenter%3B%22%20vertex%3D%221%22%20parent%3D%221%22%3E%3CmxGeometry%20x%3D%22-190%22%20y%3D%2290%22%20width%3D%22100%22%20height%3D%2240%22%20as%3D%22geometry%22%2F%3E%3C%2FmxCell%3E%3CmxCell%20id%3D%223%22%20value%3D%22NumPorta%22%20style%3D%22ellipse%3BwhiteSpace%3Dwrap%3Bhtml%3D1%3Balign%3Dcenter%3B%22%20vertex%3D%221%22%20parent%3D%221%22%3E%3CmxGeometry%20x%3D%22-210%22%20y%3D%22170%22%20width%3D%22100%22%20height%3D%2240%22%20as%3D%22geometry%22%2F%3E%3C%2FmxCell%3E%3C%2Froot%3E%3C%2FmxGraphModel%3E&lt;/span&gt;" style="ellipse;whiteSpace=wrap;html=1;align=center;" vertex="1" parent="1">
          <mxGeometry x="140" y="20" width="100" height="40" as="geometry" />
        </mxCell>
        <mxCell id="sYrx5zOrQZK9a5-0PGnQ-9" value="Pais" style="ellipse;whiteSpace=wrap;html=1;align=center;" vertex="1" parent="1">
          <mxGeometry x="-170" y="160" width="100" height="40" as="geometry" />
        </mxCell>
        <mxCell id="sYrx5zOrQZK9a5-0PGnQ-10" value="" style="endArrow=none;html=1;rounded=0;" edge="1" parent="1" source="p_HQFwrYFjM6hPYEm75_-48" target="sYrx5zOrQZK9a5-0PGnQ-8">
          <mxGeometry relative="1" as="geometry">
            <mxPoint x="34" y="101" as="sourcePoint" />
            <mxPoint x="66" y="59" as="targetPoint" />
          </mxGeometry>
        </mxCell>
      </root>
    </mxGraphModel>
  </diagram>
</mxfile>
